<svg xmlns="http://www.w3.org/2000/svg" viewBox="0 0 24 24" id="Interface-Essential-Link--Streamline-Pixel" height="24" width="24">
  <desc>
    Interface Essential Link Streamline Icon: https://streamlinehq.com
  </desc>
  <title>interface-essential-link</title>
  <g>
    <path d="M21.146250000000002 15.431249999999999h1.1400000000000001v4.5675h-1.1400000000000001Z" fill="#000000" stroke-width="0.75"></path>
    <path d="M19.99875 19.99875h1.1475v1.1475h-1.1475Z" fill="#000000" stroke-width="0.75"></path>
    <path d="M19.99875 14.29125h1.1475v1.1400000000000001h-1.1475Z" fill="#000000" stroke-width="0.75"></path>
    <path d="M18.85875 13.143749999999999h1.1400000000000001v1.1475h-1.1400000000000001Z" fill="#000000" stroke-width="0.75"></path>
    <path d="M15.431249999999999 21.146250000000002h4.5675v1.1400000000000001h-4.5675Z" fill="#000000" stroke-width="0.75"></path>
    <path d="M17.71125 12.00375h1.1475v1.1400000000000001h-1.1475Z" fill="#000000" stroke-width="0.75"></path>
    <path d="M14.283750000000001 10.85625h3.4275v1.1475h-3.4275Z" fill="#000000" stroke-width="0.75"></path>
    <path d="M14.283750000000001 19.99875h1.1475v1.1475h-1.1475Z" fill="#000000" stroke-width="0.75"></path>
    <path d="M13.143749999999999 18.85875h1.1400000000000001v1.1400000000000001h-1.1400000000000001Z" fill="#000000" stroke-width="0.75"></path>
    <path d="m10.85625 8.57625 -2.2874999999999996 0 0 2.2800000000000002 1.1475 0 0 1.1475 1.1400000000000001 0 0 1.1400000000000001 1.1475 0 0 1.1475 1.1400000000000001 0 0 1.1400000000000001 2.2874999999999996 0 0 -2.2874999999999996 -1.1475 0 0 -1.1400000000000001 -1.1400000000000001 0 0 -1.1475 -1.1400000000000001 0 0 -1.1400000000000001 -1.1475 0 0 -1.1400000000000001z" fill="#000000" stroke-width="0.75"></path>
    <path d="M12.00375 17.71875h1.1400000000000001v1.1400000000000001h-1.1400000000000001Z" fill="#000000" stroke-width="0.75"></path>
    <path d="M12.00375 6.28875h1.1400000000000001v3.4275h-1.1400000000000001Z" fill="#000000" stroke-width="0.75"></path>
    <path d="M10.85625 14.29125h1.1475v3.4275h-1.1475Z" fill="#000000" stroke-width="0.75"></path>
    <path d="M10.85625 5.14875h1.1475v1.1400000000000001h-1.1475Z" fill="#000000" stroke-width="0.75"></path>
    <path d="M9.71625 4.00125h1.1400000000000001v1.1475h-1.1400000000000001Z" fill="#000000" stroke-width="0.75"></path>
    <path d="M8.568750000000001 2.86125h1.1475v1.1400000000000001h-1.1475Z" fill="#000000" stroke-width="0.75"></path>
    <path d="M6.28875 12.00375h3.4275v1.1400000000000001h-3.4275Z" fill="#000000" stroke-width="0.75"></path>
    <path d="M5.14125 10.85625h1.1475v1.1475h-1.1475Z" fill="#000000" stroke-width="0.75"></path>
    <path d="M4.00125 1.71375h4.5675v1.1475h-4.5675Z" fill="#000000" stroke-width="0.75"></path>
    <path d="M4.00125 9.71625h1.1400000000000001v1.1400000000000001h-1.1400000000000001Z" fill="#000000" stroke-width="0.75"></path>
    <path d="M2.86125 8.57625h1.1400000000000001v1.1400000000000001h-1.1400000000000001Z" fill="#000000" stroke-width="0.75"></path>
    <path d="M2.86125 2.86125h1.1400000000000001v1.1400000000000001h-1.1400000000000001Z" fill="#000000" stroke-width="0.75"></path>
    <path d="M1.71375 4.00125h1.1475v4.574999999999999h-1.1475Z" fill="#000000" stroke-width="0.75"></path>
  </g>
</svg>