<svg width="49" height="48" viewBox="0 0 49 48" fill="none" xmlns="http://www.w3.org/2000/svg">
<path d="M28.8514 4H12.8514C11.7906 4 10.7732 4.42143 10.023 5.17157C9.27287 5.92172 8.85144 6.93913 8.85144 8V40C8.85144 41.0609 9.27287 42.0783 10.023 42.8284C10.7732 43.5786 11.7906 44 12.8514 44H36.8514C37.9123 44 38.9297 43.5786 39.6799 42.8284C40.43 42.0783 40.8514 41.0609 40.8514 40V16M28.8514 4L40.8514 16M28.8514 4V16H40.8514M32.8514 26H16.8514M32.8514 34H16.8514M20.8514 18H16.8514" stroke="#E8E5DA" stroke-width="4" stroke-linecap="round" stroke-linejoin="round"/>
</svg>
