<svg width="49" height="48" viewBox="0 0 49 48" fill="none" xmlns="http://www.w3.org/2000/svg">
<path d="M42.5314 9.21999C41.5099 8.198 40.2971 7.38728 38.9621 6.83416C37.6272 6.28103 36.1964 5.99634 34.7514 5.99634C33.3065 5.99634 31.8756 6.28103 30.5407 6.83416C29.2058 7.38728 27.9929 8.198 26.9714 9.21999L24.8514 11.34L22.7314 9.21999C20.668 7.15661 17.8695 5.99741 14.9514 5.99741C12.0334 5.99741 9.23482 7.15661 7.17143 9.21999C5.10805 11.2834 3.94885 14.0819 3.94885 17C3.94885 19.9181 5.10805 22.7166 7.17143 24.78L24.8514 42.46L42.5314 24.78C43.5534 23.7585 44.3641 22.5456 44.9173 21.2107C45.4704 19.8758 45.7551 18.445 45.7551 17C45.7551 15.555 45.4704 14.1242 44.9173 12.7893C44.3641 11.4544 43.5534 10.2415 42.5314 9.21999Z" stroke="#FB96B8" stroke-width="4" stroke-linecap="round" stroke-linejoin="round"/>
</svg>
