<svg width="49" height="48" viewBox="0 0 49 48" fill="none" xmlns="http://www.w3.org/2000/svg">
<path d="M42.5314 9.22C41.5099 8.19801 40.2971 7.3873 38.9621 6.83417C37.6272 6.28105 36.1964 5.99635 34.7514 5.99635C33.3065 5.99635 31.8756 6.28105 30.5407 6.83417C29.2058 7.3873 27.9929 8.19801 26.9714 9.22L24.8514 11.34L22.7314 9.22C20.668 7.15662 17.8695 5.99742 14.9514 5.99742C12.0334 5.99742 9.23482 7.15662 7.17143 9.22C5.10805 11.2834 3.94885 14.0819 3.94885 17C3.94885 19.9181 5.10805 22.7166 7.17143 24.78L24.8514 42.46L42.5314 24.78C43.5534 23.7585 44.3641 22.5456 44.9173 21.2107C45.4704 19.8758 45.7551 18.445 45.7551 17C45.7551 15.555 45.4704 14.1242 44.9173 12.7893C44.3641 11.4544 43.5534 10.2415 42.5314 9.22Z" stroke="#4B061D" stroke-width="4" stroke-linecap="round" stroke-linejoin="round"/>
</svg>
