<svg width="49" height="48" viewBox="0 0 49 48" fill="none" xmlns="http://www.w3.org/2000/svg">
<g clip-path="url(#clip0_4_313)">
<path d="M24.8514 30C28.1651 30 30.8514 27.3137 30.8514 24C30.8514 20.6863 28.1651 18 24.8514 18C21.5377 18 18.8514 20.6863 18.8514 24C18.8514 27.3137 21.5377 30 24.8514 30Z" stroke="#1E1E1E" stroke-width="4" stroke-linecap="round" stroke-linejoin="round"/>
<path d="M39.6514 30C39.3852 30.6032 39.3058 31.2724 39.4234 31.9212C39.5411 32.57 39.8504 33.1686 40.3114 33.64L40.4314 33.76C40.8033 34.1315 41.0984 34.5726 41.2997 35.0582C41.501 35.5438 41.6046 36.0643 41.6046 36.59C41.6046 37.1157 41.501 37.6362 41.2997 38.1218C41.0984 38.6074 40.8033 39.0485 40.4314 39.42C40.0599 39.7919 39.6188 40.0869 39.1332 40.2882C38.6476 40.4895 38.1271 40.5931 37.6014 40.5931C37.0758 40.5931 36.5553 40.4895 36.0697 40.2882C35.5841 40.0869 35.1429 39.7919 34.7714 39.42L34.6514 39.3C34.1801 38.8389 33.5814 38.5296 32.9326 38.412C32.2838 38.2944 31.6147 38.3738 31.0114 38.64C30.4199 38.8935 29.9154 39.3145 29.5601 39.8511C29.2047 40.3877 29.014 41.0164 29.0114 41.66V42C29.0114 43.0609 28.59 44.0783 27.8399 44.8284C27.0897 45.5786 26.0723 46 25.0114 46C23.9506 46 22.9332 45.5786 22.183 44.8284C21.4329 44.0783 21.0114 43.0609 21.0114 42V41.82C20.996 41.158 20.7817 40.516 20.3965 39.9774C20.0112 39.4388 19.4729 39.0286 18.8514 38.8C18.2482 38.5338 17.5791 38.4544 16.9303 38.572C16.2815 38.6896 15.6828 38.9989 15.2114 39.46L15.0914 39.58C14.7199 39.9519 14.2788 40.2469 13.7932 40.4482C13.3076 40.6495 12.7871 40.7531 12.2614 40.7531C11.7358 40.7531 11.2153 40.6495 10.7297 40.4482C10.2441 40.2469 9.80293 39.9519 9.43144 39.58C9.05953 39.2085 8.7645 38.7674 8.5632 38.2818C8.3619 37.7962 8.25829 37.2757 8.25829 36.75C8.25829 36.2243 8.3619 35.7038 8.5632 35.2182C8.7645 34.7326 9.05953 34.2915 9.43144 33.92L9.55144 33.8C10.0125 33.3286 10.3218 32.73 10.4394 32.0812C10.5571 31.4324 10.4777 30.7632 10.2114 30.16C9.95791 29.5685 9.53695 29.064 9.00037 28.7086C8.46379 28.3533 7.83501 28.1626 7.19144 28.16H6.85144C5.79057 28.16 4.77316 27.7386 4.02301 26.9884C3.27287 26.2383 2.85144 25.2209 2.85144 24.16C2.85144 23.0991 3.27287 22.0817 4.02301 21.3316C4.77316 20.5814 5.79057 20.16 6.85144 20.16H7.03144C7.69343 20.1445 8.33545 19.9302 8.87404 19.545C9.41263 19.1598 9.82287 18.6215 10.0514 18C10.3177 17.3968 10.3971 16.7276 10.2794 16.0788C10.1618 15.43 9.85251 14.8314 9.39144 14.36L9.27144 14.24C8.89953 13.8685 8.6045 13.4274 8.4032 12.9418C8.2019 12.4562 8.09829 11.9357 8.09829 11.41C8.09829 10.8843 8.2019 10.3638 8.4032 9.87824C8.6045 9.39265 8.89953 8.95149 9.27144 8.58C9.64293 8.20809 10.0841 7.91306 10.5697 7.71176C11.0553 7.51046 11.5758 7.40685 12.1014 7.40685C12.6271 7.40685 13.1476 7.51046 13.6332 7.71176C14.1188 7.91306 14.5599 8.20809 14.9314 8.58L15.0514 8.7C15.5228 9.16107 16.1215 9.47037 16.7703 9.58801C17.4191 9.70565 18.0882 9.62623 18.6914 9.36H18.8514C19.443 9.10647 19.9475 8.68551 20.3028 8.14893C20.6582 7.61235 20.8489 6.98357 20.8514 6.34V6C20.8514 4.93913 21.2729 3.92172 22.023 3.17157C22.7732 2.42143 23.7906 2 24.8514 2C25.9123 2 26.9297 2.42143 27.6799 3.17157C28.43 3.92172 28.8514 4.93913 28.8514 6V6.18C28.854 6.82357 29.0447 7.45235 29.4001 7.98893C29.7554 8.52551 30.2599 8.94647 30.8514 9.2C31.4547 9.46623 32.1238 9.54565 32.7726 9.42801C33.4214 9.31037 34.0201 9.00107 34.4914 8.54L34.6114 8.42C34.9829 8.04809 35.4241 7.75306 35.9097 7.55176C36.3953 7.35046 36.9158 7.24685 37.4414 7.24685C37.9671 7.24685 38.4876 7.35046 38.9732 7.55176C39.4588 7.75306 39.8999 8.04809 40.2714 8.42C40.6433 8.79149 40.9384 9.23265 41.1397 9.71824C41.341 10.2038 41.4446 10.7243 41.4446 11.25C41.4446 11.7757 41.341 12.2962 41.1397 12.7818C40.9384 13.2674 40.6433 13.7085 40.2714 14.08L40.1514 14.2C39.6904 14.6714 39.3811 15.27 39.2634 15.9188C39.1458 16.5676 39.2252 17.2368 39.4914 17.84V18C39.745 18.5915 40.1659 19.096 40.7025 19.4514C41.2391 19.8067 41.8679 19.9974 42.5114 20H42.8514C43.9123 20 44.9297 20.4214 45.6799 21.1716C46.43 21.9217 46.8514 22.9391 46.8514 24C46.8514 25.0609 46.43 26.0783 45.6799 26.8284C44.9297 27.5786 43.9123 28 42.8514 28H42.6714C42.0279 28.0026 41.3991 28.1933 40.8625 28.5486C40.3259 28.904 39.905 29.4085 39.6514 30Z" stroke="#1E1E1E" stroke-width="4" stroke-linecap="round" stroke-linejoin="round"/>
</g>
<defs>
<clipPath id="clip0_4_313">
<rect width="48" height="48" fill="white" transform="translate(0.85144)"/>
</clipPath>
</defs>
</svg>
